<?xml version="1.0" encoding="UTF-8"?>
<svg viewBox="5 5 285 70" xmlns="http://www.w3.org/2000/svg">
  <!-- E -->
  <rect x="10" y="10" width="8" height="60" fill="#22d3ee" opacity="1"/>
  <rect x="18" y="10" width="25" height="8" fill="#22d3ee" opacity="0.9"/>
  <rect x="18" y="36" width="20" height="8" fill="#22d3ee" opacity="0.8"/>
  <rect x="18" y="62" width="25" height="8" fill="#22d3ee" opacity="1"/>
  
  <!-- Y -->
  <rect x="55" y="10" width="8" height="25" fill="#67e8f9" opacity="1"/>
  <rect x="63" y="35" width="8" height="35" fill="#67e8f9" opacity="0.9"/>
  <rect x="71" y="10" width="8" height="25" fill="#67e8f9" opacity="0.8"/>
  
  <!-- E -->
  <rect x="95" y="10" width="8" height="60" fill="#22d3ee" opacity="1"/>
  <rect x="103" y="10" width="25" height="8" fill="#22d3ee" opacity="0.9"/>
  <rect x="103" y="36" width="20" height="8" fill="#22d3ee" opacity="0.8"/>
  <rect x="103" y="62" width="25" height="8" fill="#22d3ee" opacity="1"/>
  
  <!-- N -->
  <rect x="145" y="10" width="8" height="60" fill="#22d3ee" opacity="1"/>
  <rect x="153" y="20" width="8" height="13" fill="#22d3ee" opacity="0.9"/>
  <rect x="161" y="33" width="8" height="14" fill="#22d3ee" opacity="0.8"/>
  <rect x="169" y="47" width="8" height="13" fill="#22d3ee" opacity="0.9"/>
  <rect x="177" y="10" width="8" height="60" fill="#22d3ee" opacity="1"/>
  
  <!-- E -->
  <rect x="200" y="10" width="8" height="60" fill="#67e8f9" opacity="1"/>
  <rect x="208" y="10" width="25" height="8" fill="#67e8f9" opacity="0.9"/>
  <rect x="208" y="36" width="20" height="8" fill="#67e8f9" opacity="0.8"/>
  <rect x="208" y="62" width="25" height="8" fill="#67e8f9" opacity="1"/>
  
  <!-- T -->
  <rect x="250" y="10" width="30" height="8" fill="#22d3ee" opacity="1"/>
  <rect x="261" y="18" width="8" height="52" fill="#22d3ee" opacity="0.9"/>
</svg>